<?xml version="1.0" encoding="utf-8"?>
<!-- Generator: Adobe Illustrator 15.0.0, SVG Export Plug-In . SVG Version: 6.00 Build 0)  -->
<!DOCTYPE svg PUBLIC "-//W3C//DTD SVG 1.1//EN" "http://www.w3.org/Graphics/SVG/1.1/DTD/svg11.dtd">
<svg version="1.1" id="Layer_1" xmlns="http://www.w3.org/2000/svg" xmlns:xlink="http://www.w3.org/1999/xlink" x="0px" y="0px"
	 width="57.572px" height="57.572px" viewBox="0 0 57.572 57.572" enable-background="new 0 0 57.572 57.572" xml:space="preserve">
<path fill="#0F0F24" d="M57.541,27.551c-0.174,3.33-1.021,6.629-2.364,9.676c-1.592,3.605-4.593,7.005-7.509,9.584
	c-3.771,3.334-8.523,6.173-14.534,7.348c-0.814,0.158-1.728,0.353-2.315-0.399c4.005-2.544,6.878-6.221,7.507-12.141
	c-4.191-1.572-7.621-3.066-9.903-6.148c-3.429-4.631-3.582-11.794-1.039-16.853c1.203-2.393,2.58-3.883,4.472-5.509
	c3.941-3.387,9.78-4.285,14.674-2.874c3.843,1.105,6.862,3.813,8.737,7.25C50.873,7.205,40.672,0,28.786,0
	C12.888,0,0,12.888,0,28.787c0,15.897,12.888,28.785,28.786,28.785s28.786-12.888,28.786-28.785
	C57.572,28.372,57.559,27.962,57.541,27.551z"/>
</svg>
