<?xml version="1.0" encoding="utf-8"?>
<!-- Generator: Adobe Illustrator 15.0.0, SVG Export Plug-In . SVG Version: 6.00 Build 0)  -->
<!DOCTYPE svg PUBLIC "-//W3C//DTD SVG 1.1//EN" "http://www.w3.org/Graphics/SVG/1.1/DTD/svg11.dtd">
<svg version="1.1" id="Layer_1" xmlns="http://www.w3.org/2000/svg" xmlns:xlink="http://www.w3.org/1999/xlink" x="0px" y="0px"
	 width="221.491px" height="127.563px" viewBox="0 0 221.491 127.563" enable-background="new 0 0 221.491 127.563"
	 xml:space="preserve">
<g>
	<path fill="#1D76BB" d="M23.658,67.26c-2.219,0-4.266,0.366-6.14,1.099c-1.875,0.731-3.482,1.797-4.824,3.194
		c-1.343,1.397-2.391,3.122-3.145,5.174c-0.755,2.052-1.132,4.397-1.132,7.037c0,2.618,0.344,4.919,1.032,6.904
		c0.688,1.985,1.674,3.644,2.961,4.975c1.286,1.331,2.855,2.335,4.708,3.011c1.853,0.678,3.954,1.016,6.306,1.016
		c1.686,0,3.405-0.134,5.157-0.399c1.752-0.267,3.395-0.654,4.925-1.165v7.021c-1.553,0.444-3.228,0.793-5.024,1.049
		c-1.797,0.255-3.66,0.383-5.59,0.383c-3.771,0-7.088-0.538-9.949-1.614c-2.861-1.075-5.252-2.596-7.17-4.559
		c-1.919-1.963-3.361-4.313-4.326-7.054C0.482,90.591,0,87.568,0,84.263c0-3.394,0.516-6.543,1.548-9.449
		c1.031-2.906,2.517-5.424,4.458-7.554c1.941-2.129,4.37-3.804,7.287-5.024c2.917-1.219,6.217-1.841,9.898-1.863
		c1.886,0,3.672,0.128,5.357,0.383c1.686,0.256,3.205,0.616,4.559,1.082v6.921c-1.775-0.555-3.427-0.943-4.958-1.165
		C26.619,67.371,25.122,67.26,23.658,67.26z"/>
	<path fill="#1D76BB" d="M71.571,89.62c0,2.528-0.377,4.836-1.131,6.921c-0.755,2.085-1.836,3.871-3.244,5.356
		c-1.409,1.487-3.111,2.635-5.108,3.444c-1.996,0.81-4.226,1.215-6.688,1.215c-2.529,0-4.797-0.405-6.805-1.215
		s-3.71-1.957-5.107-3.444c-1.397-1.485-2.468-3.271-3.211-5.356s-1.114-4.393-1.114-6.921c0-2.529,0.377-4.836,1.131-6.921
		s1.836-3.871,3.244-5.357c1.408-1.485,3.111-2.634,5.107-3.443c1.997-0.81,4.226-1.215,6.688-1.215
		c2.528,0,4.797,0.405,6.805,1.215c2.007,0.81,3.71,1.958,5.107,3.443c1.397,1.486,2.467,3.272,3.211,5.357
		C71.199,84.784,71.571,87.091,71.571,89.62z M63.419,89.62c0-1.708-0.199-3.216-0.599-4.525c-0.399-1.309-0.954-2.406-1.664-3.294
		c-0.71-0.887-1.563-1.553-2.562-1.996c-0.998-0.444-2.085-0.666-3.261-0.666c-1.154,0-2.225,0.222-3.211,0.666
		c-0.987,0.443-1.836,1.109-2.546,1.996c-0.71,0.888-1.264,1.985-1.663,3.294c-0.399,1.31-0.6,2.817-0.6,4.525s0.2,3.217,0.6,4.525
		s0.959,2.401,1.68,3.277s1.575,1.542,2.563,1.996c0.986,0.455,2.068,0.683,3.244,0.683s2.251-0.228,3.228-0.683
		c0.976-0.454,1.818-1.12,2.528-1.996s1.265-1.969,1.664-3.277S63.419,91.328,63.419,89.62z"/>
	<path fill="#1D76BB" d="M120.084,86.093c0-0.688-0.021-1.331-0.066-1.93s-0.122-1.12-0.232-1.563
		c-0.244-0.977-0.722-1.764-1.431-2.363c-0.711-0.599-1.709-0.909-2.995-0.932c-0.688,0-1.397,0.101-2.129,0.3
		c-0.732,0.2-1.459,0.482-2.18,0.849c-0.722,0.366-1.409,0.81-2.063,1.331s-1.247,1.104-1.78,1.747v22.193h-7.886V86.093
		c0-0.688-0.021-1.331-0.066-1.93s-0.122-1.12-0.232-1.563c-0.244-0.977-0.716-1.764-1.414-2.363
		c-0.699-0.599-1.703-0.909-3.012-0.932c-0.688,0-1.397,0.101-2.129,0.3c-0.732,0.2-1.459,0.482-2.18,0.849
		c-0.722,0.366-1.409,0.81-2.063,1.331s-1.247,1.104-1.78,1.747v22.193h-7.886V73.482h6.522l0.731,4.492h0.133
		c0.466-0.666,1.054-1.32,1.764-1.964c0.71-0.643,1.515-1.208,2.412-1.696c0.898-0.488,1.886-0.882,2.962-1.182
		c1.075-0.3,2.213-0.449,3.41-0.449c2.13,0,4.043,0.472,5.74,1.414c1.696,0.943,2.988,2.412,3.876,4.409h0.133
		c0.621-0.865,1.314-1.652,2.08-2.362s1.613-1.32,2.545-1.83c0.932-0.511,1.936-0.909,3.012-1.198
		c1.075-0.288,2.224-0.433,3.443-0.433c2.308,0.022,4.243,0.505,5.807,1.447c1.563,0.943,2.767,2.235,3.61,3.877
		c0.222,0.421,0.41,0.882,0.565,1.381s0.283,1.06,0.383,1.68c0.1,0.621,0.172,1.31,0.216,2.063c0.045,0.754,0.067,1.619,0.067,2.595
		v19.998h-7.887V86.093z"/>
	<path fill="#1D76BB" d="M178.146,86.093c0-0.688-0.021-1.331-0.066-1.93s-0.122-1.12-0.232-1.563
		c-0.244-0.977-0.722-1.764-1.431-2.363c-0.711-0.599-1.709-0.909-2.995-0.932c-0.688,0-1.397,0.101-2.129,0.3
		c-0.732,0.2-1.459,0.482-2.18,0.849c-0.722,0.366-1.409,0.81-2.063,1.331s-1.247,1.104-1.78,1.747v22.193h-7.886V86.093
		c0-0.688-0.021-1.331-0.066-1.93s-0.122-1.12-0.232-1.563c-0.244-0.977-0.716-1.764-1.414-2.363
		c-0.699-0.599-1.703-0.909-3.012-0.932c-0.688,0-1.397,0.101-2.129,0.3c-0.732,0.2-1.459,0.482-2.18,0.849
		c-0.722,0.366-1.409,0.81-2.063,1.331s-1.247,1.104-1.78,1.747v22.193h-7.886V73.482h6.522l0.731,4.492h0.133
		c0.466-0.666,1.054-1.32,1.764-1.964c0.71-0.643,1.515-1.208,2.412-1.696c0.898-0.488,1.886-0.882,2.962-1.182
		c1.075-0.3,2.213-0.449,3.41-0.449c2.13,0,4.043,0.472,5.74,1.414c1.696,0.943,2.988,2.412,3.876,4.409h0.133
		c0.621-0.865,1.314-1.652,2.08-2.362s1.613-1.32,2.545-1.83c0.932-0.511,1.936-0.909,3.012-1.198
		c1.075-0.288,2.224-0.433,3.443-0.433c2.308,0.022,4.243,0.505,5.807,1.447c1.563,0.943,2.767,2.235,3.61,3.877
		c0.222,0.421,0.41,0.882,0.565,1.381s0.283,1.06,0.383,1.68c0.1,0.621,0.172,1.31,0.216,2.063c0.045,0.754,0.067,1.619,0.067,2.595
		v19.998h-7.887V86.093z"/>
	<path fill="#1D76BB" d="M213.65,102.297h-0.134c-0.443,0.466-0.977,0.943-1.597,1.431c-0.621,0.488-1.331,0.948-2.13,1.381
		s-1.686,0.782-2.662,1.049c-0.976,0.266-2.029,0.399-3.16,0.399c-1.531,0-2.962-0.239-4.293-0.716s-2.474-1.165-3.427-2.063
		c-0.954-0.898-1.703-1.985-2.246-3.262c-0.544-1.274-0.815-2.7-0.815-4.275c0-1.73,0.316-3.282,0.948-4.658
		c0.633-1.375,1.514-2.54,2.646-3.493c1.131-0.954,2.484-1.681,4.06-2.18c1.574-0.499,3.315-0.749,5.224-0.749
		c1.397,0,2.684,0.089,3.859,0.267s2.207,0.388,3.095,0.632v-1.298c0-0.754-0.128-1.48-0.383-2.179
		c-0.255-0.699-0.665-1.32-1.23-1.863c-0.566-0.544-1.304-0.977-2.213-1.298c-0.91-0.321-2.019-0.482-3.327-0.482
		c-1.598,0-3.194,0.178-4.792,0.532c-1.597,0.354-3.327,0.888-5.19,1.597v-6.155c1.619-0.71,3.338-1.253,5.157-1.631
		c1.818-0.377,3.727-0.576,5.724-0.599c2.351,0,4.408,0.289,6.172,0.865c1.764,0.577,3.238,1.37,4.426,2.379
		c1.186,1.01,2.073,2.202,2.661,3.577c0.588,1.376,0.882,2.873,0.882,4.492v12.145c0,2.13,0.022,3.96,0.066,5.49
		c0.045,1.53,0.089,2.895,0.134,4.093h-7.121L213.65,102.297z M213.018,91.982c-0.754-0.178-1.619-0.338-2.595-0.482
		c-0.977-0.145-1.964-0.217-2.962-0.217c-1.93,0-3.455,0.383-4.575,1.148s-1.68,1.936-1.68,3.511c0,0.731,0.127,1.369,0.382,1.913
		s0.6,0.993,1.032,1.348s0.937,0.621,1.514,0.798c0.576,0.178,1.187,0.267,1.83,0.267c0.799,0,1.553-0.105,2.263-0.316
		c0.709-0.21,1.364-0.477,1.963-0.798c0.599-0.322,1.137-0.683,1.613-1.082c0.478-0.399,0.882-0.787,1.215-1.164V91.982z"/>
</g>
<path fill="#0F0F24" d="M217.339,64.72c0,1.541-1.249,2.789-2.789,2.789H40.479c-1.541,0-2.79-1.248-2.79-2.789l0,0
	c0-1.541,1.249-2.79,2.79-2.79H214.55C216.09,61.93,217.339,63.179,217.339,64.72L217.339,64.72z"/>
<g>
	<path fill="#010101" d="M63.981,122.794v-13.72h3.63c0.321,0,0.647,0.01,0.979,0.031c0.331,0.02,0.654,0.051,0.969,0.092
		s0.618,0.091,0.913,0.148c0.293,0.059,0.563,0.129,0.81,0.211c0.731,0.232,1.377,0.547,1.938,0.943
		c0.56,0.396,1.03,0.864,1.409,1.404c0.38,0.54,0.667,1.144,0.861,1.81c0.195,0.667,0.292,1.39,0.292,2.169
		c0,0.738-0.082,1.431-0.246,2.076c-0.164,0.646-0.413,1.236-0.748,1.77s-0.757,1.003-1.267,1.409c-0.509,0.407-1.112,0.74-1.81,1
		c-0.581,0.219-1.24,0.383-1.979,0.492s-1.569,0.164-2.492,0.164H63.981z M67.529,120.691c1.47,0,2.618-0.201,3.445-0.604
		c0.731-0.362,1.285-0.889,1.661-1.579s0.563-1.572,0.563-2.646c0-0.561-0.061-1.066-0.184-1.518s-0.302-0.853-0.533-1.205
		c-0.233-0.352-0.515-0.654-0.847-0.907c-0.331-0.253-0.706-0.461-1.122-0.625c-0.391-0.15-0.824-0.26-1.303-0.328
		s-1.016-0.104-1.609-0.104h-1.107v9.516H67.529z"/>
	<path fill="#010101" d="M86.933,121.092c0.473,0,0.965-0.048,1.477-0.144c0.514-0.096,1.032-0.232,1.559-0.41v1.938
		c-0.314,0.137-0.796,0.266-1.445,0.389s-1.322,0.186-2.02,0.186c-0.705,0-1.373-0.091-2.005-0.272
		c-0.633-0.181-1.185-0.473-1.656-0.876s-0.846-0.927-1.123-1.569c-0.276-0.643-0.415-1.422-0.415-2.338
		c0-0.902,0.13-1.692,0.39-2.368c0.26-0.678,0.608-1.237,1.046-1.682s0.938-0.778,1.502-1c0.564-0.223,1.146-0.334,1.748-0.334
		c0.629,0,1.209,0.097,1.738,0.287c0.53,0.192,0.988,0.492,1.374,0.902c0.387,0.41,0.688,0.938,0.902,1.585
		c0.216,0.646,0.323,1.409,0.323,2.292c-0.007,0.342-0.018,0.632-0.031,0.871h-6.511c0.034,0.458,0.137,0.85,0.308,1.174
		c0.171,0.325,0.395,0.588,0.672,0.79c0.276,0.201,0.6,0.349,0.969,0.44C86.103,121.046,86.503,121.092,86.933,121.092z
		 M85.959,114.509c-0.308,0-0.581,0.057-0.82,0.169c-0.239,0.113-0.446,0.267-0.62,0.462c-0.175,0.194-0.313,0.422-0.416,0.682
		c-0.102,0.26-0.171,0.537-0.205,0.831h3.907c0-0.294-0.039-0.571-0.118-0.831c-0.078-0.26-0.194-0.487-0.349-0.682
		c-0.153-0.195-0.345-0.349-0.574-0.462C86.536,114.565,86.267,114.509,85.959,114.509z"/>
	<path fill="#010101" d="M105.036,112.857l-3.845,9.937h-2.41l-3.855-9.937h2.563l1.384,3.795c0.396,1.066,0.76,2.133,1.088,3.199
		h0.041c0.287-0.924,0.642-1.969,1.066-3.139l1.384-3.855H105.036z"/>
	<path fill="#010101" d="M115.263,121.092c0.471,0,0.963-0.048,1.477-0.144c0.512-0.096,1.031-0.232,1.559-0.41v1.938
		c-0.315,0.137-0.797,0.266-1.446,0.389s-1.323,0.186-2.021,0.186c-0.704,0-1.372-0.091-2.004-0.272
		c-0.633-0.181-1.185-0.473-1.656-0.876s-0.846-0.927-1.123-1.569c-0.276-0.643-0.415-1.422-0.415-2.338
		c0-0.902,0.13-1.692,0.39-2.368c0.26-0.678,0.608-1.237,1.046-1.682s0.938-0.778,1.502-1c0.564-0.223,1.146-0.334,1.749-0.334
		c0.628,0,1.208,0.097,1.737,0.287c0.53,0.192,0.988,0.492,1.374,0.902c0.387,0.41,0.688,0.938,0.902,1.585
		c0.216,0.646,0.323,1.409,0.323,2.292c-0.007,0.342-0.018,0.632-0.03,0.871h-6.512c0.034,0.458,0.137,0.85,0.308,1.174
		c0.171,0.325,0.395,0.588,0.672,0.79c0.276,0.201,0.6,0.349,0.969,0.44C114.432,121.046,114.832,121.092,115.263,121.092z
		 M114.289,114.509c-0.308,0-0.581,0.057-0.82,0.169c-0.239,0.113-0.446,0.267-0.62,0.462c-0.175,0.194-0.313,0.422-0.415,0.682
		c-0.104,0.26-0.172,0.537-0.205,0.831h3.906c0-0.294-0.039-0.571-0.118-0.831c-0.078-0.26-0.194-0.487-0.349-0.682
		c-0.153-0.195-0.345-0.349-0.574-0.462C114.865,114.565,114.596,114.509,114.289,114.509z"/>
	<path fill="#010101" d="M124.69,122.794v-14.848h2.43v14.848H124.69z"/>
	<path fill="#010101" d="M143.038,117.831c0,0.779-0.115,1.49-0.348,2.133s-0.566,1.193-1,1.651s-0.959,0.812-1.574,1.061
		c-0.615,0.25-1.303,0.375-2.061,0.375c-0.779,0-1.479-0.125-2.098-0.375c-0.619-0.249-1.143-0.603-1.574-1.061
		c-0.43-0.458-0.76-1.009-0.988-1.651c-0.23-0.643-0.344-1.354-0.344-2.133s0.115-1.49,0.348-2.133s0.566-1.192,1-1.651
		c0.434-0.457,0.959-0.812,1.574-1.061c0.615-0.25,1.303-0.375,2.061-0.375c0.779,0,1.479,0.125,2.098,0.375
		c0.619,0.249,1.143,0.604,1.574,1.061c0.43,0.459,0.76,1.009,0.988,1.651C142.925,116.341,143.038,117.052,143.038,117.831z
		 M140.526,117.831c0-0.526-0.063-0.991-0.186-1.395s-0.293-0.741-0.512-1.015s-0.482-0.479-0.789-0.615
		c-0.309-0.137-0.643-0.205-1.006-0.205c-0.355,0-0.686,0.068-0.988,0.205c-0.305,0.137-0.566,0.342-0.785,0.615
		s-0.391,0.611-0.514,1.015s-0.184,0.868-0.184,1.395s0.061,0.991,0.184,1.395s0.297,0.74,0.52,1.01
		c0.221,0.271,0.484,0.476,0.789,0.615c0.305,0.141,0.637,0.21,1,0.21c0.361,0,0.693-0.069,0.994-0.21
		c0.301-0.14,0.561-0.345,0.779-0.615c0.219-0.27,0.389-0.606,0.512-1.01S140.526,118.357,140.526,117.831z"/>
	<path fill="#010101" d="M153.839,123.051c-0.533,0-1.016-0.098-1.449-0.293c-0.436-0.194-0.795-0.436-1.082-0.723h-0.041
		c0.006,0.137,0.014,0.33,0.02,0.579c0.008,0.25,0.01,0.521,0.01,0.815v4.133h-2.43v-14.705h2.133l0.104,1.118h0.041
		c0.301-0.396,0.686-0.723,1.158-0.979c0.471-0.256,1.018-0.385,1.641-0.385c0.539,0,1.072,0.102,1.594,0.303
		c0.523,0.202,0.986,0.512,1.391,0.928c0.402,0.418,0.727,0.943,0.969,1.58c0.242,0.635,0.363,1.391,0.363,2.266
		c0,0.923-0.129,1.721-0.389,2.395c-0.26,0.673-0.602,1.23-1.025,1.671c-0.424,0.441-0.895,0.768-1.41,0.979
		S154.386,123.051,153.839,123.051z M153.522,114.561c-0.424,0.007-0.828,0.11-1.211,0.313c-0.383,0.201-0.721,0.474-1.016,0.814
		v4.43c0.104,0.117,0.227,0.233,0.369,0.35c0.145,0.116,0.305,0.222,0.482,0.317s0.375,0.175,0.59,0.235
		c0.215,0.063,0.439,0.093,0.672,0.093c0.375,0,0.711-0.08,1.004-0.241c0.295-0.16,0.539-0.388,0.734-0.682s0.344-0.645,0.445-1.051
		c0.104-0.407,0.154-0.859,0.154-1.359c0-0.533-0.053-1.001-0.158-1.404c-0.107-0.403-0.258-0.738-0.451-1.005
		c-0.195-0.267-0.43-0.468-0.703-0.604S153.856,114.561,153.522,114.561z"/>
	<path fill="#010101" d="M176.884,116.744c0-0.212-0.006-0.41-0.02-0.595s-0.039-0.345-0.072-0.481
		c-0.076-0.301-0.223-0.544-0.441-0.729s-0.525-0.28-0.922-0.287c-0.213,0-0.432,0.031-0.656,0.092
		c-0.227,0.063-0.449,0.149-0.672,0.262c-0.223,0.113-0.434,0.25-0.637,0.41c-0.201,0.161-0.385,0.341-0.549,0.539v6.839h-2.43
		v-6.05c0-0.212-0.006-0.41-0.02-0.595s-0.039-0.345-0.072-0.481c-0.076-0.301-0.221-0.544-0.436-0.729s-0.525-0.28-0.928-0.287
		c-0.213,0-0.432,0.031-0.656,0.092c-0.227,0.063-0.449,0.149-0.672,0.262c-0.223,0.113-0.434,0.25-0.637,0.41
		c-0.201,0.161-0.385,0.341-0.549,0.539v6.839h-2.43v-9.937h2.01l0.227,1.385h0.041c0.143-0.205,0.324-0.406,0.543-0.605
		c0.219-0.197,0.467-0.372,0.744-0.522c0.275-0.15,0.58-0.271,0.912-0.364c0.332-0.092,0.682-0.139,1.051-0.139
		c0.656,0,1.246,0.146,1.77,0.437c0.521,0.29,0.92,0.743,1.193,1.358h0.041c0.191-0.267,0.406-0.509,0.641-0.729
		c0.236-0.218,0.498-0.406,0.785-0.563s0.596-0.28,0.928-0.369s0.686-0.134,1.061-0.134c0.711,0.008,1.309,0.156,1.791,0.446
		c0.48,0.291,0.852,0.689,1.111,1.194c0.068,0.131,0.127,0.272,0.174,0.426c0.049,0.154,0.088,0.327,0.119,0.518
		c0.031,0.192,0.053,0.404,0.066,0.637s0.02,0.499,0.02,0.799v6.163h-2.43V116.744z"/>
	<path fill="#010101" d="M190.772,121.092c0.471,0,0.963-0.048,1.477-0.144c0.512-0.096,1.031-0.232,1.559-0.41v1.938
		c-0.314,0.137-0.797,0.266-1.445,0.389c-0.65,0.123-1.324,0.186-2.021,0.186c-0.703,0-1.371-0.091-2.004-0.272
		c-0.633-0.181-1.184-0.473-1.656-0.876c-0.471-0.403-0.846-0.927-1.123-1.569c-0.275-0.643-0.414-1.422-0.414-2.338
		c0-0.902,0.129-1.692,0.389-2.368c0.26-0.678,0.609-1.237,1.047-1.682s0.938-0.778,1.502-1c0.564-0.223,1.146-0.334,1.748-0.334
		c0.629,0,1.209,0.097,1.738,0.287c0.529,0.192,0.988,0.492,1.373,0.902c0.387,0.41,0.688,0.938,0.902,1.585
		c0.217,0.646,0.324,1.409,0.324,2.292c-0.008,0.342-0.018,0.632-0.031,0.871h-6.512c0.035,0.458,0.137,0.85,0.309,1.174
		c0.17,0.325,0.395,0.588,0.672,0.79c0.275,0.201,0.6,0.349,0.969,0.44C189.942,121.046,190.341,121.092,190.772,121.092z
		 M189.798,114.509c-0.307,0-0.58,0.057-0.82,0.169c-0.238,0.113-0.445,0.267-0.619,0.462c-0.176,0.194-0.314,0.422-0.416,0.682
		c-0.104,0.26-0.172,0.537-0.205,0.831h3.906c0-0.294-0.039-0.571-0.117-0.831s-0.195-0.487-0.35-0.682
		c-0.152-0.195-0.344-0.349-0.574-0.462C190.374,114.565,190.106,114.509,189.798,114.509z"/>
	<path fill="#010101" d="M202.333,114.242h0.041c0.143-0.205,0.324-0.406,0.543-0.605c0.219-0.197,0.469-0.372,0.748-0.522
		c0.281-0.15,0.59-0.271,0.928-0.364c0.34-0.092,0.699-0.139,1.082-0.139c0.363,0,0.713,0.041,1.051,0.123
		c0.34,0.082,0.648,0.211,0.928,0.385c0.281,0.175,0.529,0.4,0.744,0.677c0.215,0.277,0.385,0.607,0.508,0.989
		c0.068,0.213,0.115,0.443,0.139,0.692c0.023,0.25,0.035,0.538,0.035,0.866v6.45h-2.43v-6.07c0-0.267-0.01-0.495-0.031-0.687
		c-0.02-0.191-0.059-0.359-0.113-0.503c-0.123-0.314-0.309-0.54-0.559-0.677c-0.248-0.137-0.551-0.205-0.906-0.205
		c-0.473,0-0.926,0.111-1.359,0.333c-0.434,0.223-0.818,0.546-1.154,0.97v6.839h-2.43v-9.937h2.01L202.333,114.242z"/>
	<path fill="#010101" d="M221.491,122.783c-0.273,0.082-0.6,0.147-0.98,0.195c-0.379,0.048-0.732,0.072-1.061,0.072
		c-0.834,0-1.516-0.136-2.045-0.405c-0.531-0.271-0.904-0.658-1.123-1.164c-0.158-0.362-0.236-0.854-0.236-1.477v-5.147h-1.855v-2
		h1.855v-2.778h2.43v2.778h2.871v2h-2.871v4.83c0,0.383,0.059,0.666,0.174,0.851c0.205,0.314,0.613,0.472,1.221,0.472
		c0.281,0,0.559-0.022,0.836-0.066c0.277-0.045,0.539-0.101,0.785-0.17V122.783z"/>
</g>
<g>
	<g>
		<path fill="#1D76BB" d="M79.708,44.424L71.39,55.637h-9.05L75.083,39.2L63.104,23.395h9.284l7.52,10.647l7.652-10.647h9.317
			L84.566,39.167l12.644,16.47h-9.217L79.708,44.424z"/>
		<path fill="#1D76BB" d="M122.065,13.846c-0.865-0.222-1.758-0.405-2.679-0.55c-0.92-0.144-1.791-0.216-2.611-0.216
			c-0.888,0-1.676,0.105-2.362,0.316c-0.688,0.211-1.271,0.561-1.747,1.048c-0.478,0.488-0.838,1.12-1.082,1.896
			s-0.365,1.72-0.365,2.828v4.226h8.95v6.488h-8.95v25.754h-7.886V29.883h-5.457v-6.488h5.457v-3.826
			c0-2.263,0.315-4.209,0.948-5.84c0.632-1.63,1.514-2.972,2.645-4.025c1.132-1.054,2.463-1.83,3.993-2.329s3.194-0.749,4.991-0.749
			c1.108,0,2.213,0.095,3.311,0.283s2.046,0.415,2.845,0.682V13.846z"/>
		<path fill="#1D76BB" d="M154.974,39.532c0,2.529-0.377,4.837-1.131,6.921c-0.755,2.086-1.836,3.871-3.244,5.357
			c-1.409,1.486-3.111,2.635-5.108,3.443c-1.996,0.81-4.226,1.215-6.688,1.215c-2.529,0-4.797-0.405-6.805-1.215
			c-2.008-0.809-3.71-1.957-5.107-3.443s-2.468-3.271-3.211-5.357c-0.743-2.084-1.114-4.392-1.114-6.921
			c0-2.528,0.377-4.835,1.131-6.921c0.754-2.085,1.836-3.87,3.244-5.356s3.111-2.634,5.107-3.444
			c1.997-0.81,4.226-1.214,6.688-1.214c2.528,0,4.797,0.404,6.805,1.214c2.007,0.811,3.71,1.958,5.107,3.444
			s2.467,3.271,3.211,5.356C154.602,34.697,154.974,37.004,154.974,39.532z M146.821,39.532c0-1.708-0.199-3.216-0.599-4.524
			s-0.954-2.407-1.664-3.295c-0.71-0.887-1.563-1.552-2.562-1.996c-0.998-0.443-2.085-0.665-3.261-0.665
			c-1.154,0-2.225,0.222-3.211,0.665c-0.987,0.444-1.836,1.109-2.546,1.996c-0.71,0.888-1.264,1.986-1.663,3.295
			s-0.6,2.816-0.6,4.524c0,1.709,0.2,3.217,0.6,4.525c0.399,1.31,0.959,2.401,1.68,3.277c0.721,0.877,1.575,1.542,2.563,1.997
			c0.986,0.454,2.068,0.682,3.244,0.682s2.251-0.228,3.228-0.682c0.976-0.455,1.818-1.12,2.528-1.997
			c0.71-0.876,1.265-1.968,1.664-3.277C146.622,42.749,146.821,41.241,146.821,39.532z"/>
		<path fill="#1D76BB" d="M181.126,29.65h-0.666c-2.418,0-4.541,0.36-6.371,1.081c-1.83,0.722-3.244,1.825-4.243,3.311v21.595
			h-7.886V23.395h6.522l0.731,4.492h0.133c0.932-1.642,2.213-2.934,3.844-3.876c1.63-0.943,3.588-1.414,5.872-1.414
			c0.799,0,1.486,0.044,2.063,0.133V29.65z"/>
		<path fill="#1D76BB" d="M184.121,40.165c0-2.817,0.388-5.329,1.164-7.537c0.776-2.207,1.836-4.059,3.178-5.557
			c1.342-1.497,2.878-2.617,4.608-3.36s3.527-1.114,5.391-1.114c0.865,0,1.686,0.077,2.462,0.232s1.509,0.366,2.196,0.632
			c0.688,0.267,1.331,0.566,1.93,0.898c0.599,0.333,1.153,0.678,1.664,1.032h0.066c-0.022-0.443-0.039-1.07-0.05-1.88
			c-0.012-0.81-0.017-1.691-0.017-2.646V7.457h7.886v38.597c0,2.13,0.021,3.96,0.066,5.49c0.044,1.531,0.089,2.896,0.133,4.093
			h-7.12l-0.333-3.427h-0.133c-0.466,0.555-1.026,1.098-1.681,1.63c-0.654,0.533-1.375,0.993-2.162,1.381
			c-0.788,0.389-1.653,0.693-2.596,0.915c-0.943,0.222-1.969,0.333-3.078,0.333c-1.752,0-3.433-0.311-5.041-0.932
			s-3.05-1.58-4.325-2.878c-1.276-1.298-2.296-2.995-3.062-5.091C184.504,45.472,184.121,43.005,184.121,40.165z M199.659,50.18
			c0.776,0,1.515-0.1,2.213-0.299c0.699-0.2,1.358-0.466,1.98-0.799c0.62-0.333,1.169-0.698,1.646-1.098
			c0.477-0.399,0.882-0.787,1.215-1.165V31.514c-0.932-0.754-1.975-1.381-3.128-1.88s-2.374-0.749-3.66-0.749
			c-0.821,0-1.681,0.167-2.579,0.499c-0.897,0.333-1.719,0.898-2.462,1.697s-1.364,1.908-1.863,3.327
			c-0.499,1.42-0.749,3.228-0.749,5.424c0,3.239,0.627,5.768,1.881,7.586C195.406,49.237,197.241,50.158,199.659,50.18z"/>
	</g>
	<path fill="#0F0F24" d="M61.088,27.551c-0.174,3.33-1.021,6.629-2.364,9.676c-1.592,3.605-4.593,7.005-7.509,9.584
		c-3.771,3.334-8.523,6.173-14.534,7.348c-0.814,0.158-1.728,0.353-2.315-0.399c4.005-2.544,6.878-6.221,7.507-12.141
		c-4.191-1.572-7.621-3.066-9.903-6.148c-3.429-4.631-3.582-11.794-1.039-16.853c1.203-2.393,2.58-3.883,4.472-5.509
		c3.941-3.387,9.78-4.285,14.674-2.874c3.843,1.105,6.862,3.813,8.737,7.25C54.42,7.205,44.219,0,32.333,0
		C16.435,0,3.547,12.888,3.547,28.787c0,15.897,12.888,28.785,28.786,28.785s28.786-12.888,28.786-28.785
		C61.119,28.372,61.105,27.962,61.088,27.551z"/>
</g>
</svg>
